# Blender v3.2.1 OBJ File: '3D Dice Pack - D6.blend'
# www.blender.org
mtllib 3D Dice Pack - D6.mtl
o 3D_Dice_Pack_-_D6
v 1.000000 -0.850000 -0.850000
v 0.850000 -1.000000 -0.850000
v 0.850000 -0.850000 -1.000000
v 0.988582 -0.907403 -0.850000
v 0.956066 -0.956066 -0.850000
v 0.988582 -0.850000 -0.907402
v 0.975537 -0.908054 -0.908054
v 0.948710 -0.948710 -0.904888
v 0.936602 -0.936603 -0.936602
v 0.850000 -0.988582 -0.907402
v 0.850000 -0.956066 -0.956066
v 0.907402 -0.988582 -0.850000
v 0.908054 -0.975537 -0.908054
v 0.904888 -0.948710 -0.948710
v 0.907402 -0.850000 -0.988582
v 0.956066 -0.850000 -0.956066
v 0.850000 -0.907403 -0.988582
v 0.908054 -0.908054 -0.975537
v 0.948710 -0.904888 -0.948710
v -1.000000 -0.850000 -0.850000
v -0.850000 -0.850000 -1.000000
v -0.850000 -1.000000 -0.850000
v -0.988582 -0.850000 -0.907402
v -0.956066 -0.850000 -0.956066
v -0.988582 -0.907402 -0.850000
v -0.975537 -0.908054 -0.908054
v -0.948710 -0.904888 -0.948710
v -0.936603 -0.936602 -0.936602
v -0.850000 -0.907402 -0.988582
v -0.850000 -0.956066 -0.956066
v -0.907403 -0.850000 -0.988582
v -0.908054 -0.908054 -0.975537
v -0.904888 -0.948710 -0.948710
v -0.907403 -0.988582 -0.850000
v -0.956066 -0.956066 -0.850000
v -0.850000 -0.988582 -0.907402
v -0.908054 -0.975537 -0.908054
v -0.948710 -0.948710 -0.904888
v 1.000000 -0.850000 0.850000
v 0.850000 -0.850000 1.000000
v 0.850000 -1.000000 0.850000
v 0.988582 -0.850000 0.907402
v 0.956066 -0.850000 0.956066
v 0.988582 -0.907403 0.850000
v 0.975537 -0.908054 0.908054
v 0.948710 -0.904888 0.948710
v 0.936602 -0.936603 0.936602
v 0.850000 -0.907403 0.988582
v 0.850000 -0.956066 0.956066
v 0.907402 -0.850000 0.988582
v 0.908054 -0.908054 0.975537
v 0.904888 -0.948710 0.948710
v 0.907402 -0.988582 0.850000
v 0.956066 -0.956066 0.850000
v 0.850000 -0.988582 0.907402
v 0.908054 -0.975537 0.908054
v 0.948710 -0.948710 0.904888
v -1.000000 -0.850000 0.850000
v -0.850000 -1.000000 0.850000
v -0.850000 -0.850000 1.000000
v -0.988582 -0.907402 0.850000
v -0.956066 -0.956066 0.850000
v -0.988582 -0.850000 0.907402
v -0.975537 -0.908054 0.908054
v -0.948710 -0.948710 0.904888
v -0.936603 -0.936602 0.936602
v -0.850000 -0.988582 0.907402
v -0.850000 -0.956066 0.956066
v -0.907403 -0.988582 0.850000
v -0.908054 -0.975537 0.908054
v -0.904888 -0.948710 0.948710
v -0.907403 -0.850000 0.988582
v -0.956066 -0.850000 0.956066
v -0.850000 -0.907402 0.988582
v -0.908054 -0.908054 0.975537
v -0.948710 -0.904888 0.948710
v 1.000000 0.850000 -0.850000
v 0.850000 0.850000 -1.000000
v 0.850000 1.000000 -0.850000
v 0.988582 0.850000 -0.907402
v 0.956066 0.850000 -0.956066
v 0.988582 0.907402 -0.850000
v 0.975537 0.908054 -0.908054
v 0.948710 0.904888 -0.948710
v 0.936603 0.936602 -0.936602
v 0.850000 0.907402 -0.988582
v 0.850000 0.956066 -0.956066
v 0.907403 0.850000 -0.988582
v 0.908054 0.908054 -0.975537
v 0.904888 0.948710 -0.948710
v 0.907403 0.988582 -0.850000
v 0.956066 0.956066 -0.850000
v 0.850000 0.988582 -0.907402
v 0.908054 0.975537 -0.908054
v 0.948710 0.948710 -0.904888
v -1.000000 0.850000 -0.850000
v -0.850000 1.000000 -0.850000
v -0.850000 0.850000 -1.000000
v -0.988582 0.907403 -0.850000
v -0.956066 0.956066 -0.850000
v -0.988582 0.850000 -0.907402
v -0.975537 0.908054 -0.908054
v -0.948710 0.948710 -0.904888
v -0.936602 0.936603 -0.936602
v -0.850000 0.988582 -0.907402
v -0.850000 0.956066 -0.956066
v -0.907402 0.988582 -0.850000
v -0.908054 0.975537 -0.908054
v -0.904888 0.948710 -0.948710
v -0.907402 0.850000 -0.988582
v -0.956066 0.850000 -0.956066
v -0.850000 0.907403 -0.988582
v -0.908054 0.908054 -0.975537
v -0.948710 0.904888 -0.948710
v 0.850000 0.850000 1.000000
v 1.000000 0.850000 0.850000
v 0.850000 1.000000 0.850000
v 0.907403 0.850000 0.988582
v 0.956066 0.850000 0.956066
v 0.850000 0.907402 0.988582
v 0.908054 0.908054 0.975537
v 0.948710 0.904888 0.948710
v 0.936603 0.936602 0.936602
v 0.988582 0.907402 0.850000
v 0.956066 0.956066 0.850000
v 0.988582 0.850000 0.907402
v 0.975537 0.908054 0.908054
v 0.948710 0.948710 0.904888
v 0.850000 0.988582 0.907402
v 0.850000 0.956066 0.956066
v 0.907403 0.988582 0.850000
v 0.908054 0.975537 0.908054
v 0.904888 0.948710 0.948710
v -1.000000 0.850000 0.850000
v -0.850000 0.850000 1.000000
v -0.850000 1.000000 0.850000
v -0.988582 0.850000 0.907402
v -0.956066 0.850000 0.956066
v -0.988582 0.907403 0.850000
v -0.975537 0.908054 0.908054
v -0.948710 0.904888 0.948710
v -0.936602 0.936603 0.936602
v -0.850000 0.907403 0.988582
v -0.850000 0.956066 0.956066
v -0.907402 0.850000 0.988582
v -0.908054 0.908054 0.975537
v -0.904888 0.948710 0.948710
v -0.907402 0.988582 0.850000
v -0.956066 0.956066 0.850000
v -0.850000 0.988582 0.907402
v -0.908054 0.975537 0.908054
v -0.948710 0.948710 0.904888
vt 0.518747 0.268790
vt 0.731210 0.268790
vt 0.731210 0.481253
vt 0.518747 0.481253
vt 0.481253 0.731210
vt 0.268790 0.731210
vt 0.268790 0.518747
vt 0.481253 0.518747
vt 0.481253 0.481253
vt 0.268790 0.481253
vt 0.268790 0.268790
vt 0.481253 0.268790
vt 0.481253 0.231297
vt 0.268790 0.231297
vt 0.268790 0.018833
vt 0.481253 0.018833
vt 0.018833 0.268790
vt 0.231297 0.268790
vt 0.231297 0.481253
vt 0.018833 0.481253
vt 0.011659 0.268790
vt 0.011578 0.261535
vt 0.018833 0.261616
vt 0.000087 0.268790
vt 0.000087 0.261930
vt 0.011974 0.250043
vt 0.018833 0.250043
vt 0.000087 0.257967
vt 0.981167 0.268790
vt 0.981167 0.261616
vt 0.988422 0.261534
vt 0.988341 0.268790
vt 0.981167 0.250043
vt 0.988026 0.250043
vt 0.999913 0.261930
vt 0.999913 0.268790
vt 0.991990 0.250043
vt 0.261616 0.018833
vt 0.261534 0.011578
vt 0.268790 0.011659
vt 0.250043 0.018833
vt 0.250043 0.011974
vt 0.261930 0.000087
vt 0.268790 0.000087
vt 0.250043 0.008010
vt 0.731210 0.261616
vt 0.738465 0.261535
vt 0.738384 0.268790
vt 0.731210 0.250043
vt 0.738070 0.250043
vt 0.749957 0.261930
vt 0.749957 0.268790
vt 0.742033 0.250043
vt 0.481253 0.011659
vt 0.488509 0.011578
vt 0.488427 0.018833
vt 0.481253 0.000087
vt 0.488113 0.000087
vt 0.500000 0.011974
vt 0.500000 0.018833
vt 0.492077 0.000087
vt 0.768704 0.268790
vt 0.761529 0.268790
vt 0.761448 0.261534
vt 0.768703 0.261616
vt 0.761844 0.250043
vt 0.768703 0.250043
vt 0.749957 0.257967
vt 0.018833 0.488427
vt 0.011578 0.488509
vt 0.011659 0.481253
vt 0.018833 0.500000
vt 0.011974 0.500000
vt 0.000087 0.488113
vt 0.000087 0.481253
vt 0.008010 0.500000
vt 0.268790 0.738384
vt 0.261535 0.738465
vt 0.261616 0.731210
vt 0.268790 0.749957
vt 0.261930 0.749957
vt 0.250043 0.738070
vt 0.250043 0.731210
vt 0.257967 0.749957
vt 0.981167 0.481253
vt 0.988341 0.481253
vt 0.988422 0.488509
vt 0.981167 0.488427
vt 0.999913 0.481253
vt 0.999913 0.488113
vt 0.988026 0.500000
vt 0.981167 0.500000
vt 0.999913 0.492077
vt 0.738384 0.481253
vt 0.738465 0.488509
vt 0.731210 0.488427
vt 0.749957 0.481253
vt 0.749957 0.488113
vt 0.738070 0.500000
vt 0.731210 0.500000
vt 0.749957 0.492077
vt 0.768704 0.481253
vt 0.768703 0.488427
vt 0.761448 0.488509
vt 0.761529 0.481253
vt 0.768703 0.500000
vt 0.761844 0.500000
vt 0.757880 0.500000
vt 0.488427 0.731210
vt 0.488509 0.738465
vt 0.481253 0.738384
vt 0.500000 0.731210
vt 0.500000 0.738070
vt 0.488113 0.749957
vt 0.481253 0.749957
vt 0.500000 0.742033
vt 0.231296 0.261616
vt 0.238552 0.261535
vt 0.238471 0.268790
vt 0.231296 0.250043
vt 0.238156 0.250043
vt 0.250043 0.261930
vt 0.250043 0.268790
vt 0.250043 0.252684
vt 0.268790 0.238471
vt 0.261535 0.238552
vt 0.261616 0.231297
vt 0.268790 0.250043
vt 0.261930 0.250043
vt 0.250043 0.238156
vt 0.250043 0.231297
vt 0.261616 0.268790
vt 0.261535 0.261535
vt 0.268790 0.261616
vt 0.511573 0.268790
vt 0.511491 0.261535
vt 0.518747 0.261616
vt 0.500000 0.268790
vt 0.500000 0.261930
vt 0.511887 0.250043
vt 0.518747 0.250043
vt 0.497359 0.250043
vt 0.481253 0.261616
vt 0.488509 0.261535
vt 0.488427 0.268790
vt 0.481253 0.250043
vt 0.488113 0.250043
vt 0.488427 0.231297
vt 0.488509 0.238552
vt 0.481253 0.238471
vt 0.500000 0.231297
vt 0.500000 0.238156
vt 0.261616 0.518747
vt 0.261535 0.511491
vt 0.268790 0.511573
vt 0.250043 0.518747
vt 0.250043 0.511887
vt 0.261930 0.500000
vt 0.268790 0.500000
vt 0.252684 0.500000
vt 0.238471 0.481253
vt 0.238552 0.488509
vt 0.231297 0.488427
vt 0.250043 0.481253
vt 0.250043 0.488113
vt 0.238156 0.500000
vt 0.231297 0.500000
vt 0.268790 0.488427
vt 0.261535 0.488509
vt 0.261616 0.481253
vt 0.518747 0.488427
vt 0.511491 0.488509
vt 0.511573 0.481253
vt 0.518747 0.500000
vt 0.511887 0.500000
vt 0.500000 0.488113
vt 0.500000 0.481253
vt 0.500000 0.497359
vt 0.481253 0.511573
vt 0.488509 0.511491
vt 0.488427 0.518747
vt 0.481253 0.500000
vt 0.488113 0.500000
vt 0.500000 0.511887
vt 0.500000 0.518747
vt 0.488427 0.481253
vt 0.488509 0.488509
vt 0.481253 0.488427
vn -0.9900 0.0996 -0.0996
vn -0.9900 -0.0996 -0.0996
vn -0.9900 -0.0996 0.0996
vn -0.9900 0.0996 0.0996
vn -0.0996 -0.0996 0.9900
vn 0.0996 -0.0996 0.9900
vn 0.0996 0.0996 0.9900
vn -0.0996 0.0996 0.9900
vn -0.0996 0.9900 0.0996
vn 0.0996 0.9900 0.0996
vn 0.0996 0.9900 -0.0996
vn -0.0996 0.9900 -0.0996
vn -0.0996 0.0996 -0.9900
vn 0.0996 0.0996 -0.9900
vn 0.0996 -0.0996 -0.9900
vn -0.0996 -0.0996 -0.9900
vn 0.9900 -0.0996 -0.0996
vn 0.9900 0.0996 -0.0996
vn 0.9900 0.0996 0.0996
vn 0.9900 -0.0996 0.0996
vn 0.9203 -0.3790 -0.0969
vn 0.8568 -0.3647 -0.3647
vn 0.9203 -0.0969 -0.3790
vn 0.7042 -0.7042 -0.0910
vn 0.6669 -0.6669 -0.3325
vn 0.6669 -0.3325 -0.6669
vn 0.7042 -0.0910 -0.7042
vn 0.5773 -0.5773 -0.5774
vn 0.0996 -0.9900 -0.0996
vn 0.0969 -0.9203 -0.3790
vn 0.3647 -0.8568 -0.3647
vn 0.3790 -0.9203 -0.0969
vn 0.0910 -0.7042 -0.7042
vn 0.3325 -0.6669 -0.6669
vn 0.3790 -0.0969 -0.9203
vn 0.3647 -0.3647 -0.8568
vn 0.0969 -0.3790 -0.9203
vn -0.9203 -0.0969 -0.3790
vn -0.8568 -0.3647 -0.3647
vn -0.9203 -0.3790 -0.0969
vn -0.7042 -0.0910 -0.7042
vn -0.6669 -0.3325 -0.6669
vn -0.6669 -0.6669 -0.3325
vn -0.7042 -0.7042 -0.0910
vn -0.5773 -0.5774 -0.5773
vn -0.0969 -0.3790 -0.9203
vn -0.3647 -0.3647 -0.8568
vn -0.3790 -0.0969 -0.9203
vn -0.0910 -0.7042 -0.7042
vn -0.3325 -0.6669 -0.6669
vn -0.0996 -0.9900 -0.0996
vn -0.3790 -0.9203 -0.0969
vn -0.3647 -0.8568 -0.3647
vn -0.0969 -0.9203 -0.3790
vn 0.9203 -0.0969 0.3790
vn 0.8568 -0.3647 0.3647
vn 0.9203 -0.3790 0.0969
vn 0.7042 -0.0910 0.7042
vn 0.6669 -0.3325 0.6669
vn 0.6669 -0.6669 0.3325
vn 0.7042 -0.7042 0.0910
vn 0.5773 -0.5773 0.5774
vn 0.0969 -0.3790 0.9203
vn 0.3647 -0.3647 0.8568
vn 0.3790 -0.0969 0.9203
vn 0.0910 -0.7042 0.7042
vn 0.3325 -0.6669 0.6669
vn 0.0996 -0.9900 0.0996
vn 0.3790 -0.9203 0.0969
vn 0.3647 -0.8568 0.3647
vn 0.0969 -0.9203 0.3790
vn -0.9203 -0.3790 0.0969
vn -0.8568 -0.3647 0.3647
vn -0.9203 -0.0969 0.3790
vn -0.7042 -0.7042 0.0910
vn -0.6669 -0.6669 0.3325
vn -0.6669 -0.3325 0.6669
vn -0.7042 -0.0910 0.7042
vn -0.5773 -0.5774 0.5773
vn -0.0996 -0.9900 0.0996
vn -0.0969 -0.9203 0.3790
vn -0.3647 -0.8568 0.3647
vn -0.3790 -0.9203 0.0969
vn -0.0910 -0.7042 0.7042
vn -0.3325 -0.6669 0.6669
vn -0.3790 -0.0969 0.9203
vn -0.3647 -0.3647 0.8568
vn -0.0969 -0.3790 0.9203
vn 0.9203 0.0969 -0.3790
vn 0.8568 0.3647 -0.3647
vn 0.9203 0.3790 -0.0969
vn 0.7042 0.0910 -0.7042
vn 0.6669 0.3325 -0.6669
vn 0.6669 0.6669 -0.3325
vn 0.7042 0.7042 -0.0910
vn 0.5773 0.5774 -0.5773
vn 0.0969 0.3790 -0.9203
vn 0.3647 0.3647 -0.8568
vn 0.3790 0.0969 -0.9203
vn 0.0910 0.7042 -0.7042
vn 0.3325 0.6669 -0.6669
vn 0.3790 0.9203 -0.0969
vn 0.3647 0.8568 -0.3647
vn 0.0969 0.9203 -0.3790
vn -0.9203 0.3790 -0.0969
vn -0.8568 0.3647 -0.3647
vn -0.9203 0.0969 -0.3790
vn -0.7042 0.7042 -0.0910
vn -0.6669 0.6669 -0.3325
vn -0.6669 0.3325 -0.6669
vn -0.7042 0.0910 -0.7042
vn -0.5773 0.5773 -0.5774
vn -0.0969 0.9203 -0.3790
vn -0.3647 0.8568 -0.3647
vn -0.3790 0.9203 -0.0969
vn -0.0910 0.7042 -0.7042
vn -0.3325 0.6669 -0.6669
vn -0.3790 0.0969 -0.9203
vn -0.3647 0.3647 -0.8568
vn -0.0969 0.3790 -0.9203
vn 0.3790 0.0969 0.9203
vn 0.3647 0.3647 0.8568
vn 0.0969 0.3790 0.9203
vn 0.7042 0.0910 0.7042
vn 0.6669 0.3325 0.6669
vn 0.3325 0.6669 0.6669
vn 0.0910 0.7042 0.7042
vn 0.5773 0.5774 0.5773
vn 0.9203 0.3790 0.0969
vn 0.8568 0.3647 0.3647
vn 0.9203 0.0969 0.3790
vn 0.7042 0.7042 0.0910
vn 0.6669 0.6669 0.3325
vn 0.0969 0.9203 0.3790
vn 0.3647 0.8568 0.3647
vn 0.3790 0.9203 0.0969
vn -0.9203 0.0969 0.3790
vn -0.8568 0.3647 0.3647
vn -0.9203 0.3790 0.0969
vn -0.7042 0.0910 0.7042
vn -0.6669 0.3325 0.6669
vn -0.6669 0.6669 0.3325
vn -0.7042 0.7042 0.0910
vn -0.5773 0.5773 0.5774
vn -0.0969 0.3790 0.9203
vn -0.3647 0.3647 0.8568
vn -0.3790 0.0969 0.9203
vn -0.0910 0.7042 0.7042
vn -0.3325 0.6669 0.6669
vn -0.3790 0.9203 0.0969
vn -0.3647 0.8568 0.3647
vn -0.0969 0.9203 0.3790
usemtl Dice
s 1
f 96/1/1 20/2/2 58/3/3 134/4/4
f 60/5/5 40/6/6 115/7/7 135/8/8
f 136/9/9 117/10/10 79/11/11 97/12/12
f 98/13/13 78/14/14 3/15/15 21/16/16
f 1/17/17 77/18/18 116/19/19 39/20/20
f 1/17/17 4/21/21 7/22/22 6/23/23
f 4/21/21 5/24/24 8/25/25 7/22/22
f 6/23/23 7/22/22 19/26/26 16/27/27
f 7/22/22 8/25/25 9/28/28 19/26/26
f 2/29/29 10/30/30 13/31/31 12/32/32
f 10/30/30 11/33/33 14/34/34 13/31/31
f 12/32/32 13/31/31 8/35/25 5/36/24
f 13/31/31 14/34/34 9/37/28 8/35/25
f 3/15/15 15/38/35 18/39/36 17/40/37
f 15/38/35 16/41/27 19/42/26 18/39/36
f 17/40/37 18/39/36 14/43/34 11/44/33
f 18/39/36 19/42/26 9/45/28 14/43/34
f 20/2/2 23/46/38 26/47/39 25/48/40
f 23/46/38 24/49/41 27/50/42 26/47/39
f 25/48/40 26/47/39 38/51/43 35/52/44
f 26/47/39 27/50/42 28/53/45 38/51/43
f 21/16/16 29/54/46 32/55/47 31/56/48
f 29/54/46 30/57/49 33/58/50 32/55/47
f 31/56/48 32/55/47 27/59/42 24/60/41
f 32/55/47 33/58/50 28/61/45 27/59/42
f 22/62/51 34/63/52 37/64/53 36/65/54
f 34/63/52 35/52/44 38/51/43 37/64/53
f 36/65/54 37/64/53 33/66/50 30/67/49
f 37/64/53 38/51/43 28/68/45 33/66/50
f 39/20/20 42/69/55 45/70/56 44/71/57
f 42/69/55 43/72/58 46/73/59 45/70/56
f 44/71/57 45/70/56 57/74/60 54/75/61
f 45/70/56 46/73/59 47/76/62 57/74/60
f 40/6/6 48/77/63 51/78/64 50/79/65
f 48/77/63 49/80/66 52/81/67 51/78/64
f 50/79/65 51/78/64 46/82/59 43/83/58
f 51/78/64 52/81/67 47/84/62 46/82/59
f 41/85/68 53/86/69 56/87/70 55/88/71
f 53/86/69 54/89/61 57/90/60 56/87/70
f 55/88/71 56/87/70 52/91/67 49/92/66
f 56/87/70 57/90/60 47/93/62 52/91/67
f 58/3/3 61/94/72 64/95/73 63/96/74
f 61/94/72 62/97/75 65/98/76 64/95/73
f 63/96/74 64/95/73 76/99/77 73/100/78
f 64/95/73 65/98/76 66/101/79 76/99/77
f 59/102/80 67/103/81 70/104/82 69/105/83
f 67/103/81 68/106/84 71/107/85 70/104/82
f 69/105/83 70/104/82 65/98/76 62/97/75
f 70/104/82 71/107/85 66/108/79 65/98/76
f 60/5/5 72/109/86 75/110/87 74/111/88
f 72/109/86 73/112/78 76/113/77 75/110/87
f 74/111/88 75/110/87 71/114/85 68/115/84
f 75/110/87 76/113/77 66/116/79 71/114/85
f 77/18/18 80/117/89 83/118/90 82/119/91
f 80/117/89 81/120/92 84/121/93 83/118/90
f 82/119/91 83/118/90 95/122/94 92/123/95
f 83/118/90 84/121/93 85/124/96 95/122/94
f 78/14/14 86/125/97 89/126/98 88/127/99
f 86/125/97 87/128/100 90/129/101 89/126/98
f 88/127/99 89/126/98 84/130/93 81/131/92
f 89/126/98 90/129/101 85/124/96 84/130/93
f 79/11/11 91/132/102 94/133/103 93/134/104
f 91/132/102 92/123/95 95/122/94 94/133/103
f 93/134/104 94/133/103 90/129/101 87/128/100
f 94/133/103 95/122/94 85/124/96 90/129/101
f 96/1/1 99/135/105 102/136/106 101/137/107
f 99/135/105 100/138/108 103/139/109 102/136/106
f 101/137/107 102/136/106 114/140/110 111/141/111
f 102/136/106 103/139/109 104/142/112 114/140/110
f 97/12/12 105/143/113 108/144/114 107/145/115
f 105/143/113 106/146/116 109/147/117 108/144/114
f 107/145/115 108/144/114 103/139/109 100/138/108
f 108/144/114 109/147/117 104/142/112 103/139/109
f 98/13/13 110/148/118 113/149/119 112/150/120
f 110/148/118 111/151/111 114/152/110 113/149/119
f 112/150/120 113/149/119 109/147/117 106/146/116
f 113/149/119 114/152/110 104/142/112 109/147/117
f 115/7/7 118/153/121 121/154/122 120/155/123
f 118/153/121 119/156/124 122/157/125 121/154/122
f 120/155/123 121/154/122 133/158/126 130/159/127
f 121/154/122 122/157/125 123/160/128 133/158/126
f 116/19/19 124/161/129 127/162/130 126/163/131
f 124/161/129 125/164/132 128/165/133 127/162/130
f 126/163/131 127/162/130 122/166/125 119/167/124
f 127/162/130 128/165/133 123/160/128 122/166/125
f 117/10/10 129/168/134 132/169/135 131/170/136
f 129/168/134 130/159/127 133/158/126 132/169/135
f 131/170/136 132/169/135 128/165/133 125/164/132
f 132/169/135 133/158/126 123/160/128 128/165/133
f 134/4/4 137/171/137 140/172/138 139/173/139
f 137/171/137 138/174/140 141/175/141 140/172/138
f 139/173/139 140/172/138 152/176/142 149/177/143
f 140/172/138 141/175/141 142/178/144 152/176/142
f 135/8/8 143/179/145 146/180/146 145/181/147
f 143/179/145 144/182/148 147/183/149 146/180/146
f 145/181/147 146/180/146 141/184/141 138/185/140
f 146/180/146 147/183/149 142/178/144 141/184/141
f 136/9/9 148/186/150 151/187/151 150/188/152
f 148/186/150 149/177/143 152/176/142 151/187/151
f 150/188/152 151/187/151 147/183/149 144/182/148
f 151/187/151 152/176/142 142/178/144 147/183/149
f 39/20/20 116/19/19 126/163/131 42/69/55
f 42/69/55 126/163/131 119/167/124 43/72/58
f 43/83/58 119/156/124 118/153/121 50/79/65
f 50/79/65 118/153/121 115/7/7 40/6/6
f 134/4/4 58/3/3 63/96/74 137/171/137
f 137/171/137 63/96/74 73/100/78 138/174/140
f 138/185/140 73/112/78 72/109/86 145/181/147
f 145/181/147 72/109/86 60/5/5 135/8/8
f 40/6/6 60/5/5 74/111/88 48/77/63
f 48/77/63 74/111/88 68/115/84 49/80/66
f 49/92/66 68/106/84 67/103/81 55/88/71
f 55/88/71 67/103/81 59/102/80 41/85/68
f 1/17/17 39/20/20 44/71/57 4/21/21
f 4/21/21 44/71/57 54/75/61 5/24/24
f 5/36/24 54/89/61 53/86/69 12/32/32
f 12/32/32 53/86/69 41/85/68 2/29/29
f 58/3/3 20/2/2 25/48/40 61/94/72
f 61/94/72 25/48/40 35/52/44 62/97/75
f 62/97/75 35/52/44 34/63/52 69/105/83
f 69/105/83 34/63/52 22/62/51 59/102/80
f 2/29/29 22/62/51 36/65/54 10/30/30
f 10/30/30 36/65/54 30/67/49 11/33/33
f 11/44/33 30/57/49 29/54/46 17/40/37
f 17/40/37 29/54/46 21/16/16 3/15/15
f 77/18/18 1/17/17 6/23/23 80/117/89
f 80/117/89 6/23/23 16/27/27 81/120/92
f 81/131/92 16/41/27 15/38/35 88/127/99
f 88/127/99 15/38/35 3/15/15 78/14/14
f 20/2/2 96/1/1 101/137/107 23/46/38
f 23/46/38 101/137/107 111/141/111 24/49/41
f 24/60/41 111/151/111 110/148/118 31/56/48
f 31/56/48 110/148/118 98/13/13 21/16/16
f 78/14/14 98/13/13 112/150/120 86/125/97
f 86/125/97 112/150/120 106/146/116 87/128/100
f 87/128/100 106/146/116 105/143/113 93/134/104
f 93/134/104 105/143/113 97/12/12 79/11/11
f 116/19/19 77/18/18 82/119/91 124/161/129
f 124/161/129 82/119/91 92/123/95 125/164/132
f 125/164/132 92/123/95 91/132/102 131/170/136
f 131/170/136 91/132/102 79/11/11 117/10/10
f 135/8/8 115/7/7 120/155/123 143/179/145
f 143/179/145 120/155/123 130/159/127 144/182/148
f 144/182/148 130/159/127 129/168/134 150/188/152
f 150/188/152 129/168/134 117/10/10 136/9/9
f 96/1/1 134/4/4 139/173/139 99/135/105
f 99/135/105 139/173/139 149/177/143 100/138/108
f 100/138/108 149/177/143 148/186/150 107/145/115
f 107/145/115 148/186/150 136/9/9 97/12/12
f 22/62/51 2/29/29 41/85/68 59/102/80
